<?xml version="1.0" encoding="UTF-8"?>
<svg width="24px" height="24px" viewBox="0 0 24 24" version="1.1" xmlns="http://www.w3.org/2000/svg" xmlns:xlink="http://www.w3.org/1999/xlink">
    <!-- Generator: Sketch 64 (93537) - https://sketch.com -->
    <title>Icon-Architecture/16/Arch_Amazon-Pinpoint_16</title>
    <desc>Created with Sketch.</desc>
    <defs>
        <linearGradient x1="0%" y1="100%" x2="100%" y2="0%" id="linearGradient-1">
            <stop stop-color="#BD0816" offset="0%"></stop>
            <stop stop-color="#FF5252" offset="100%"></stop>
        </linearGradient>
    </defs>
    <g id="Icon-Architecture/16/Arch_Amazon-Pinpoint_16" stroke="none" stroke-width="1" fill="none" fill-rule="evenodd">
        <g id="Icon-Architecture-BG/16/Mobile" fill="url(#linearGradient-1)">
            <rect id="Rectangle" x="0" y="0" width="24" height="24"></rect>
        </g>
        <path d="M17.0513626,6.48364207 C17.0513626,6.75290424 17.2703755,6.97092622 17.5386161,6.97092622 C17.8078614,6.97092622 18.0268743,6.75290424 18.0268743,6.48364207 C18.0268743,6.21437991 17.8078614,5.99635793 17.5386161,5.99635793 C17.2703755,5.99635793 17.0513626,6.21437991 17.0513626,6.48364207 L17.0513626,6.48364207 Z M14.4684164,10.2412559 L12.3546402,12.3551648 L11.6443551,11.6448352 L13.7581314,9.53092622 C13.2608313,9.17626374 12.6570388,8.9622606 12.0010046,8.9622606 C10.3262589,8.9622606 8.96395831,10.3246468 8.96395831,11.9984929 C8.96395831,13.6733438 10.3262589,15.0347253 12.0010046,15.0347253 C13.6757503,15.0347253 15.0370463,13.6733438 15.0370463,11.9984929 C15.0370463,11.3424176 14.8230566,10.7385871 14.4684164,10.2412559 L14.4684164,10.2412559 Z M15.9080748,8.80050235 L15.1787015,9.53193093 C15.7111641,10.2161381 16.0416928,11.0661224 16.0416928,11.9984929 C16.0416928,14.2269388 14.2283059,16.0394349 12.0010046,16.0394349 C9.77269873,16.0394349 7.95931182,14.2269388 7.95931182,11.9984929 C7.95931182,9.7700471 9.77269873,7.95755102 12.0010046,7.95755102 C12.9333166,7.95755102 13.7822429,8.28810047 14.4674118,8.82160126 L15.1977898,8.09117739 C14.3227427,7.37281005 13.2186362,6.92370487 12.0010046,6.92370487 C9.20306417,6.92370487 6.92653523,9.20037677 6.92653523,11.9984929 C6.92653523,14.7966091 9.20306417,17.0742857 12.0010046,17.0742857 C14.7989451,17.0742857 17.0754741,14.7966091 17.0754741,11.9984929 C17.0754741,10.7807849 16.6263971,9.67660911 15.9080748,8.80050235 L15.9080748,8.80050235 Z M16.1853573,7.10354788 C16.0989577,6.91365777 16.0467161,6.70568289 16.0467161,6.48364207 C16.0467161,5.66078493 16.7158106,4.99164835 17.5386161,4.99164835 C18.3624262,4.99164835 19.0315208,5.66078493 19.0315208,6.48364207 C19.0315208,7.30649922 18.3624262,7.97563579 17.5386161,7.97563579 C17.3055381,7.97563579 17.0865252,7.91635793 16.8896145,7.82091052 L16.6364436,8.07409733 C17.5345975,9.13406593 18.0801206,10.5024804 18.0801206,11.9984929 C18.0801206,15.3512088 15.35351,18.0789953 12.0010046,18.0789953 C8.64950396,18.0789953 5.92188874,15.3512088 5.92188874,11.9984929 C5.92188874,8.64577708 8.64950396,5.91899529 12.0010046,5.91899529 C13.4969233,5.91899529 14.8652518,6.46455259 15.9261585,7.36276295 L16.1853573,7.10354788 Z M20,11.9994976 C20,16.4111774 16.4103981,20 12,20 C7.58859726,20 4,16.4111774 4,11.9994976 C4,7.58882261 7.58859726,4 12,4 C13.1191762,4 14.2041944,4.22706436 15.2229059,4.67717425 L14.8160241,5.59648352 C13.926912,5.20364207 12.9785257,5.00470958 12,5.00470958 C8.14316212,5.00470958 5.00464649,8.14241758 5.00464649,11.9994976 C5.00464649,15.8565777 8.14316212,18.9952904 12,18.9952904 C15.8568379,18.9952904 18.9953535,15.8565777 18.9953535,11.9994976 C18.9953535,11.0178964 18.7964335,10.0754788 18.4066307,9.19736264 L19.3248776,8.78945055 C19.7719452,9.79616954 20,10.8762323 20,11.9994976 L20,11.9994976 Z" id="Amazon-Pinpoint-Icon_16_Squid" fill="#FFFFFF"></path>
    </g>
</svg>