<?xml version="1.0" encoding="UTF-8"?>
<svg width="24px" height="24px" viewBox="0 0 24 24" version="1.1" xmlns="http://www.w3.org/2000/svg" xmlns:xlink="http://www.w3.org/1999/xlink">
    <!-- Generator: Sketch 64 (93537) - https://sketch.com -->
    <title>Icon-Architecture/16/Arch_AWS-AppSync_16</title>
    <desc>Created with Sketch.</desc>
    <defs>
        <linearGradient x1="0%" y1="100%" x2="100%" y2="0%" id="linearGradient-1">
            <stop stop-color="#BD0816" offset="0%"></stop>
            <stop stop-color="#FF5252" offset="100%"></stop>
        </linearGradient>
    </defs>
    <g id="Icon-Architecture/16/Arch_AWS-AppSync_16" stroke="none" stroke-width="1" fill="none" fill-rule="evenodd">
        <g id="Icon-Architecture-BG/16/Mobile" fill="url(#linearGradient-1)">
            <rect id="Rectangle" x="0" y="0" width="24" height="24"></rect>
        </g>
        <path d="M13.9695489,14.018873 C13.6473029,14.018873 13.3842859,14.2808861 13.3842859,14.604136 C13.3842859,14.926382 13.6473029,15.189399 13.9695489,15.189399 C14.2917949,15.189399 14.5538081,14.926382 14.5538081,14.604136 C14.5538081,14.2808861 14.2917949,14.018873 13.9695489,14.018873 M9.57053942,14.604136 C9.57053942,14.2808861 9.30752242,14.018873 8.9852764,14.018873 C8.66303038,14.018873 8.40001339,14.2808861 8.40001339,14.604136 C8.40001339,14.926382 8.66303038,15.189399 8.9852764,15.189399 C9.30752242,15.189399 9.57053942,14.926382 9.57053942,14.604136 M10.8394459,10.0435015 C10.8394459,10.4079106 11.135591,10.7040557 11.5,10.7040557 C11.864409,10.7040557 12.1605541,10.4079106 12.1605541,10.0435015 C12.1605541,9.67909249 11.864409,9.3829474 11.5,9.3829474 C11.135591,9.3829474 10.8394459,9.67909249 10.8394459,10.0435015 M12.8512247,13.4767769 L11.8302771,11.6748093 C11.7238656,11.6968947 11.6134386,11.7079374 11.5,11.7079374 C11.3875653,11.7079374 11.2771383,11.6968947 11.1717307,11.6748093 L10.1377326,13.5169321 C10.2943381,13.6815687 10.4117923,13.8813412 10.4850756,14.1021952 L12.4697497,14.1021952 C12.5490564,13.8642752 12.6765493,13.6494445 12.8512247,13.4767769 M13.9695489,13.0149913 C14.8449337,13.0149913 15.5576897,13.7277473 15.5576897,14.604136 C15.5576897,15.4805247 14.8449337,16.1932807 13.9695489,16.1932807 C13.2698434,16.1932807 12.6805649,15.7345068 12.4697497,15.1060768 L10.4850756,15.1060768 C10.2742605,15.7345068 9.68498193,16.1932807 8.9852764,16.1932807 C8.1088877,16.1932807 7.39613171,15.4805247 7.39613171,14.604136 C7.39613171,13.7277473 8.1088877,13.0149913 8.9852764,13.0149913 C9.07763352,13.0149913 9.1659751,13.0270379 9.25431669,13.0420961 L10.2963459,11.1859189 C10.0122474,10.887766 9.83556418,10.4862134 9.83556418,10.0435015 C9.83556418,9.12595369 10.5824521,8.37906572 11.5,8.37906572 C12.4175479,8.37906572 13.1644358,9.12595369 13.1644358,10.0435015 C13.1644358,10.4852095 12.9877526,10.8847544 12.7066658,11.1839111 L13.7547182,13.0360728 C13.82499,13.0270379 13.8962656,13.0149913 13.9695489,13.0149913 M18.0182037,8.78864944 L17.1458305,9.28557087 C17.701981,10.26034 17.9961183,11.371637 17.9961183,12.5 C17.9961183,16.0818498 15.0818498,18.9961183 11.5,18.9961183 C10.1568063,18.9961183 8.86782225,18.5885424 7.77258734,17.819569 L7.19635926,18.6407442 C8.46024629,19.5301834 9.94900281,20 11.5,20 C15.6349886,20 19,16.6349886 19,12.5 C19,11.1979655 18.660688,9.91500468 18.0182037,8.78864944 M5.00388168,12.5 C5.00388168,13.6665105 5.31709276,14.8109356 5.90938295,15.8077901 L5.04604471,16.3207737 C4.36240128,15.1683175 4,13.8462053 4,12.5 C4,8.3640075 7.36501138,5 11.5,5 C12.6293669,5 13.7155669,5.24494713 14.7284835,5.7288181 L14.2948066,6.63532325 C13.4184179,6.21570071 12.4787846,6.00388168 11.5,6.00388168 C7.91815018,6.00388168 5.00388168,8.9171463 5.00388168,12.5" id="AWS-AppSync-Icon_16_Squid" fill="#FFFFFF"></path>
    </g>
</svg>