<?xml version="1.0" encoding="UTF-8"?>
<svg width="24px" height="24px" viewBox="0 0 24 24" version="1.1" xmlns="http://www.w3.org/2000/svg" xmlns:xlink="http://www.w3.org/1999/xlink">
    <!-- Generator: Sketch 64 (93537) - https://sketch.com -->
    <title>Icon-Architecture/16/Arch_AWS-Managed-Services_16</title>
    <desc>Created with Sketch.</desc>
    <defs>
        <linearGradient x1="0%" y1="100%" x2="100%" y2="0%" id="linearGradient-1">
            <stop stop-color="#B0084D" offset="0%"></stop>
            <stop stop-color="#FF4F8B" offset="100%"></stop>
        </linearGradient>
    </defs>
    <g id="Icon-Architecture/16/Arch_AWS-Managed-Services_16" stroke="none" stroke-width="1" fill="none" fill-rule="evenodd">
        <g id="Icon-Architecture-BG/16/Management-Governance" fill="url(#linearGradient-1)">
            <rect id="Rectangle" x="0" y="0" width="24" height="24"></rect>
        </g>
        <path d="M11.979,5 C8.13,5 5,8.131 5,11.979 C5,15.827 8.13,18.958 11.979,18.958 C13.647,18.958 15.254,18.351 16.511,17.278 L15.331,16.988 L15.569,16.017 L17.633,16.523 L17.629,16.538 C17.651,16.543 17.673,16.534 17.695,16.542 C17.887,16.617 18.014,16.802 18.014,17.009 L18.014,18.979 L17.014,18.979 L17.014,18.168 C15.6,19.316 13.82,19.958 11.979,19.958 C7.579,19.958 4,16.378 4,11.979 C4,7.58 7.579,4 11.979,4 C16.379,4 19.958,7.58 19.958,11.979 L18.958,11.979 C18.958,8.131 15.828,5 11.979,5 L11.979,5 Z M11.421,11.41 C11.57,11.255 11.769,11.168 11.983,11.164 L11.999,11.164 C12.207,11.164 12.403,11.243 12.553,11.388 C12.708,11.536 12.794,11.735 12.799,11.949 C12.803,12.163 12.724,12.365 12.576,12.52 C12.268,12.838 11.762,12.847 11.444,12.542 C11.125,12.236 11.116,11.728 11.421,11.41 L11.421,11.41 Z M11.999,13.764 C12.471,13.764 12.944,13.58 13.296,13.213 C13.63,12.866 13.808,12.41 13.798,11.929 C13.79,11.448 13.593,11 13.247,10.667 C12.531,9.979 11.388,10.001 10.701,10.716 C10.012,11.432 10.035,12.574 10.75,13.263 C11.099,13.598 11.548,13.764 11.999,13.764 L11.999,13.764 Z M9.743,10.492 L9.196,9.518 L10.524,8.555 L11.275,9.37 C11.371,9.473 11.526,9.534 11.646,9.531 L12.329,9.527 C12.467,9.526 12.599,9.468 12.693,9.366 L13.439,8.557 L14.766,9.522 L14.221,10.492 C14.153,10.613 14.138,10.757 14.18,10.89 L14.384,11.528 C14.427,11.662 14.525,11.771 14.652,11.831 L15.666,12.296 L15.158,13.856 L14.063,13.637 C13.924,13.61 13.783,13.641 13.669,13.723 L13.126,14.12 C13.014,14.203 12.941,14.328 12.924,14.466 L12.795,15.569 L11.155,15.568 L11.028,14.473 C11.011,14.336 10.939,14.211 10.829,14.129 L10.28,13.722 C10.167,13.639 10.024,13.606 9.884,13.634 L8.798,13.851 L8.292,12.29 L9.309,11.824 C9.436,11.766 9.533,11.657 9.577,11.524 L9.783,10.892 C9.826,10.759 9.812,10.614 9.743,10.492 L9.743,10.492 Z M7.471,11.566 C7.241,11.672 7.125,11.934 7.204,12.175 L7.984,14.583 C8.061,14.824 8.311,14.969 8.557,14.919 L9.863,14.658 L10.059,14.804 L10.212,16.125 C10.242,16.377 10.456,16.567 10.709,16.567 L13.241,16.569 C13.495,16.569 13.708,16.379 13.738,16.127 L13.893,14.799 L14.082,14.661 L15.397,14.924 C15.647,14.974 15.892,14.83 15.971,14.589 L16.754,12.182 C16.833,11.941 16.718,11.679 16.488,11.573 L15.27,11.014 L15.2,10.792 L15.856,9.625 C15.981,9.403 15.919,9.124 15.714,8.975 L13.667,7.486 C13.463,7.337 13.178,7.365 13.006,7.552 L12.105,8.529 L11.861,8.53 L10.958,7.55 C10.786,7.363 10.503,7.336 10.296,7.484 L8.248,8.97 C8.042,9.119 7.981,9.398 8.106,9.62 L8.764,10.791 L8.694,11.006 L7.471,11.566 Z" id="AWS-Managed-Services_Icon_16_Squid" fill="#FFFFFF"></path>
    </g>
</svg>