<?xml version="1.0" encoding="UTF-8"?>
<svg width="24px" height="24px" viewBox="0 0 24 24" version="1.1" xmlns="http://www.w3.org/2000/svg" xmlns:xlink="http://www.w3.org/1999/xlink">
    <!-- Generator: Sketch 64 (93537) - https://sketch.com -->
    <title>Icon-Architecture/16/Arch_AWS-Compute-Optimizer_16</title>
    <desc>Created with Sketch.</desc>
    <defs>
        <linearGradient x1="0%" y1="100%" x2="100%" y2="0%" id="linearGradient-1">
            <stop stop-color="#B0084D" offset="0%"></stop>
            <stop stop-color="#FF4F8B" offset="100%"></stop>
        </linearGradient>
    </defs>
    <g id="Icon-Architecture/16/Arch_AWS-Compute-Optimizer_16" stroke="none" stroke-width="1" fill="none" fill-rule="evenodd">
        <g id="Icon-Architecture-BG/16/Management-Governance" fill="url(#linearGradient-1)">
            <rect id="Rectangle" x="0" y="0" width="24" height="24"></rect>
        </g>
        <path d="M13.668,5.96925446 C13.653,6.21425446 13.818,6.43325446 14.058,6.48725446 C14.609,6.61125446 15.131,6.82525446 15.607,7.12625446 C15.816,7.25725446 16.085,7.21825446 16.247,7.03525446 L16.603,6.63625446 L17.654,7.68425446 L17.256,8.04125446 C17.073,8.20325446 17.036,8.47425446 17.167,8.68125446 C17.468,9.15725446 17.685,9.67825446 17.811,10.2302545 C17.864,10.4682545 18.083,10.6342545 18.327,10.6182545 L18.86,10.5872545 L18.861,12.0722545 L18.331,12.0422545 C18.051,12.0182545 17.868,12.1942545 17.814,12.4322545 C17.691,12.9832545 17.476,13.5052545 17.175,13.9842545 L18.021,14.5162545 C18.307,14.0622545 18.528,13.5742545 18.683,13.0632545 L19.334,13.0992545 C19.49,13.1092545 19.607,13.0572545 19.706,12.9642545 C19.806,12.8692545 19.862,12.7372545 19.862,12.6002545 L19.859,10.0562545 C19.859,9.91925446 19.803,9.78725446 19.702,9.69325446 C19.603,9.59825446 19.471,9.55225446 19.33,9.55825446 L18.676,9.59625446 C18.563,9.22025446 18.412,8.85925446 18.227,8.51425446 L18.715,8.07725446 C18.817,7.98625446 18.878,7.85625446 18.882,7.71825446 C18.886,7.58025446 18.832,7.44825446 18.735,7.35025446 L16.935,5.55425446 C16.836,5.45625446 16.695,5.41025446 16.566,5.40825446 C16.429,5.41225446 16.299,5.47325446 16.208,5.57525446 L15.772,6.06525446 C15.427,5.88225446 15.065,5.73225446 14.69,5.61925446 L14.726,5.02425446 C14.733,4.88625446 14.685,4.75225446 14.591,4.65225446 C14.496,4.55125446 14.364,4.49425446 14.227,4.49425446 L12.917,4.49425446 L12.917,5.49425446 L13.696,5.49425446 L13.668,5.96925446 Z M10.958,17.5952545 L10.958,12.6392545 L9.714,13.8572545 L9.015,13.1422545 L10.958,11.2402545 L10.958,10.7072545 L9.857,9.62925446 L10.557,8.91425446 L10.958,9.30725446 L10.958,5.84425446 L9.417,5.10725446 L9.417,7.35325446 L8.417,7.35325446 L8.417,5.69325446 L6.717,6.82625446 L6.717,8.78625446 L8.209,9.77225446 C8.35,9.86425446 8.434,10.0212545 8.434,10.1892545 L8.434,12.4992545 L7.434,12.4992545 L7.434,10.4582545 L6.192,9.63725446 L5.001,10.2912545 L5,11.6252545 L5.001,13.4282545 L6.402,13.9892545 C6.593,14.0652545 6.717,14.2492545 6.717,14.4532545 L6.717,16.5732545 L7.399,16.9822545 L9.354,15.5162545 L9.953,16.3162545 L8.325,17.5372545 L9.656,18.3362545 L10.958,17.5952545 Z M11.958,5.52925446 L11.958,17.8862545 C11.958,18.0652545 11.861,18.2312545 11.705,18.3202545 L9.897,19.3502545 C9.82,19.3932545 9.734,19.4152545 9.649,19.4152545 C9.561,19.4152545 9.472,19.3912545 9.393,19.3442545 L5.96,17.2842545 C5.809,17.1942545 5.717,17.0322545 5.717,16.8562545 L5.717,14.7922545 L4.315,14.2312545 C4.126,14.1552545 4.001,13.9712545 4.001,13.7672545 L4,11.6242545 L4.001,9.99425446 C4.001,9.81225446 4.101,9.64425446 4.261,9.55625446 L5.717,8.75825446 L5.717,6.55925446 C5.717,6.39225446 5.801,6.23625446 5.939,6.14325446 L9.028,4.08325446 C9.175,3.98625446 9.364,3.97325446 9.522,4.04825446 L11.674,5.07825446 C11.848,5.16125446 11.958,5.33725446 11.958,5.52925446 L11.958,5.52925446 Z M18.884,17.4442545 C18.884,17.1292545 18.699,16.9372545 18.336,16.8742545 C18.065,16.8282545 17.883,16.5712545 17.928,16.3002545 C17.923,16.2572545 17.896,16.1272545 17.817,16.1022545 C17.778,16.0872545 17.718,16.0992545 17.679,16.1522545 C17.569,16.3012545 17.389,16.3762545 17.202,16.3502545 C17.019,16.3222545 16.866,16.1962545 16.805,16.0212545 C16.736,15.8272545 16.636,15.6602545 16.514,15.5362545 C16.381,15.4032545 16.141,15.2232545 15.811,15.2232545 C15.687,15.2232545 15.549,15.2492545 15.399,15.3122545 C15.09,15.4442545 14.828,15.8582545 14.828,16.2162545 L14.839,16.3692545 C14.855,16.6092545 14.696,16.8252545 14.464,16.8852545 C14.038,16.9942545 14.038,17.3152545 14.038,17.4352545 C14.038,17.6822545 14.14,17.8712545 14.34,17.9972545 L18.371,17.9992545 C18.538,17.9792545 18.884,17.8852545 18.884,17.4442545 L18.884,17.4442545 Z M19.884,17.4442545 C19.884,18.5062545 19.017,18.9552545 18.433,18.9982545 C18.421,18.9992545 18.408,18.9992545 18.397,18.9992545 L14.389,18.9992545 C14.167,18.9992545 13.971,18.9472545 13.806,18.8432545 C13.519,18.6612545 13.038,18.2382545 13.038,17.4352545 C13.038,16.8252545 13.336,16.3262545 13.838,16.0612545 C13.91,15.3412545 14.389,14.6552545 15.009,14.3922545 C15.791,14.0592545 16.618,14.2232545 17.223,14.8312545 C17.315,14.9252545 17.399,15.0282545 17.475,15.1392545 C17.685,15.0782545 17.913,15.0802545 18.13,15.1522545 C18.439,15.2532545 18.765,15.5232545 18.88,15.9942545 C19.4,16.1992545 19.884,16.6592545 19.884,17.4442545 L19.884,17.4442545 Z M12.917,13.9992545 L12.917,12.9992545 C13.744,12.9992545 14.417,12.3262545 14.417,11.4992545 C14.417,10.6722545 13.744,9.99925446 12.917,9.99925446 L12.917,8.99925446 C14.296,8.99925446 15.417,10.1212545 15.417,11.4992545 C15.417,12.8782545 14.296,13.9992545 12.917,13.9992545 L12.917,13.9992545 Z" id="AWS-Compute-Optimizer_Icon_16_Squid" fill="#FFFFFF"></path>
    </g>
</svg>