<svg xmlns="http://www.w3.org/2000/svg" viewBox="0 0 18 18"><defs><linearGradient id="a" x1="8.15" y1="17.5" x2="8.15" y2="2.09" gradientUnits="userSpaceOnUse"><stop offset="0" stop-color="#1988d9"/><stop offset=".9" stop-color="#54aef0"/></linearGradient></defs><path d="M1.93 2.11L3.14.7a.59.59 0 01.45-.2H15.2a.81.81 0 01.89.83v14.5a.57.57 0 01-.2.43l-1.3 1.19H2.72l-.81-.33z" fill="#005ba1"/><path d="M2.91 2.1l.74-.84A.5.5 0 014 1.08h10.89a.52.52 0 01.52.52v13.78a.52.52 0 01-.17.39l-1.16 1.05z" fill="#fff"/><path d="M14 2.09H2a.06.06 0 00-.06.06v15a.39.39 0 00.39.38H14a.38.38 0 00.38-.38V2.48a.39.39 0 00-.38-.39z" fill="url(#a)"/><rect x="4.72" y="6.2" width="6.58" height="2.38" rx=".28" fill="#fff"/></svg>