<svg xmlns="http://www.w3.org/2000/svg" viewBox="0 0 18 18"><defs><linearGradient id="a" x1="9" y1="15.83" x2="9" y2="5.79" gradientUnits="userSpaceOnUse"><stop offset="0" stop-color="#32bedd"/><stop offset=".18" stop-color="#32caea"/><stop offset=".41" stop-color="#32d2f2"/><stop offset=".78" stop-color="#32d4f5"/></linearGradient></defs><path d="M.5 5.79h17v9.48a.57.57 0 01-.57.57H1.07a.57.57 0 01-.57-.57V5.79z" fill="url(#a)"/><path d="M1.07 2.17h15.86a.57.57 0 01.57.57v3.05H.5V2.73a.57.57 0 01.57-.56z" fill="#198ab3"/><path d="M2.81 6.89h12.36a.27.27 0 01.27.27v1.4a.27.27 0 01-.27.27H2.81a.27.27 0 01-.26-.27v-1.4a.27.27 0 01.26-.27z" fill="#fff"/><path d="M2.82 9.68h12.36a.27.27 0 01.27.27v1.41a.27.27 0 01-.27.27H2.82a.26.26 0 01-.26-.27V10a.26.26 0 01.26-.32zM2.82 12.5h12.36a.27.27 0 01.27.27v1.41a.27.27 0 01-.27.27H2.82a.26.26 0 01-.26-.27v-1.41a.26.26 0 01.26-.27z" fill="#9cebff"/><path d="M5.11 7.86v5.59a.28.28 0 00.28.28h2.35a.28.28 0 00.26-.28v-3.32a.27.27 0 01.28-.28h1.41a.27.27 0 01.28.28v3.32a.28.28 0 00.29.28h2.35a.28.28 0 00.28-.28V7.86a.28.28 0 00-.28-.28H5.39a.28.28 0 00-.28.28z" fill="#0078d4"/></svg>