<svg xmlns="http://www.w3.org/2000/svg" viewBox="0 0 18 18"><defs><linearGradient id="a" x1="10.75" y1="13.54" x2="10.75" y2="2.92" gradientUnits="userSpaceOnUse"><stop offset="0" stop-color="#0078d4"/><stop offset=".16" stop-color="#1380da"/><stop offset=".53" stop-color="#3c91e5"/><stop offset=".82" stop-color="#559cec"/><stop offset="1" stop-color="#5ea0ef"/></linearGradient><linearGradient id="b" x1="7.45" y1="17.24" x2="7.45" y2="1.19" gradientUnits="userSpaceOnUse"><stop offset="0" stop-color="#198ab3"/><stop offset="0" stop-color="#198ab3"/><stop offset=".11" stop-color="#22a5cb"/><stop offset=".23" stop-color="#29bade"/><stop offset=".37" stop-color="#2ec9eb"/><stop offset=".53" stop-color="#31d1f3"/><stop offset=".78" stop-color="#32d4f5"/></linearGradient></defs><path d="M18 10.53a3.26 3.26 0 00-2.83-3.13 4.11 4.11 0 00-4.23-3.93 4.22 4.22 0 00-4 2.75A3.89 3.89 0 003.5 10a4 4 0 004.08 3.79h7.18A3.29 3.29 0 0018 10.53z" fill="url(#a)"/><path d="M14.9 11.22A3.35 3.35 0 0012 8a4.21 4.21 0 00-4.35-4 4.33 4.33 0 00-4.14 2.79A4 4 0 000 10.63a4.06 4.06 0 004.2 3.9h7.34a3.38 3.38 0 003.36-3.31z" fill="url(#b)"/><path d="M4.82 9.37h.85a.23.23 0 01.17.07l2 2a.24.24 0 010 .35l-2.72 2.67a.24.24 0 01-.17.07h-.81a.25.25 0 01-.14-.42l2.31-2.34a.23.23 0 000-.34L4.65 9.78a.24.24 0 01.17-.41zM8.25 6h.87a.25.25 0 01.17.08l1.53 1.55a.24.24 0 010 .34l-2 1.91a.24.24 0 01-.17.07h-.73a.25.25 0 01-.18-.41L9.27 8a.25.25 0 000-.34l-1.19-1.2A.24.24 0 018.25 6zm1.79 4h.85a.28.28 0 01.17.07l1.25 1.25a.25.25 0 010 .34l-1.81 1.83a.23.23 0 01-.17.07h-.82a.24.24 0 01-.17-.41l1.42-1.44a.25.25 0 000-.34l-.89-.91a.24.24 0 01.13-.41z" fill="#fff"/></svg>