<svg xmlns="http://www.w3.org/2000/svg" viewBox="0 0 18 18"><defs><linearGradient id="a" x1="9" y1="13.14" x2="9" y2=".39" gradientUnits="userSpaceOnUse"><stop offset="0" stop-color="#0078d4"/><stop offset=".82" stop-color="#5ea0ef"/></linearGradient></defs><path d="M18 9.15a4.05 4.05 0 00-3.51-3.89A5.1 5.1 0 009.24.39a5.23 5.23 0 00-5 3.4A4.84 4.84 0 000 8.44a4.89 4.89 0 005.07 4.7 3.17 3.17 0 00.44 0h8.21a.78.78 0 00.22 0A4.09 4.09 0 0018 9.15z" fill="url(#a)"/><path d="M9.47 8.32a4.74 4.74 0 10-4.73 4.82h4.73V8.32z" fill="#50e6ff"/><path d="M11.8 15.34l-2.25 2.24a.1.1 0 01-.16 0l-2.24-2.24a.12.12 0 01.08-.2h1.32a.11.11 0 00.11-.14v-2.9a.11.11 0 01.12-.1h1.39a.11.11 0 01.11.11V15a.11.11 0 00.12.11h1.32a.12.12 0 01.08.23z" fill="#0078d4"/><path d="M7.15 9.82L9.47 7.5l2.33 2.32a.11.11 0 01-.08.19H10.4a.12.12 0 00-.12.12v3H8.66v-3a.12.12 0 00-.11-.13H7.23a.11.11 0 01-.08-.18z" fill="#fff"/></svg>