<svg data-name="azure-fluent-icons" xmlns="http://www.w3.org/2000/svg" viewBox="0 0 18 18"><defs><linearGradient id="a" x1="5.41" y1="17.33" x2="5.41" y2="4.61" gradientUnits="userSpaceOnUse"><stop offset="0" stop-color="#949494"/><stop offset=".53" stop-color="#a2a2a2"/><stop offset="1" stop-color="#b3b3b3"/></linearGradient><linearGradient id="b" x1="10.04" y1="-1347.39" x2="10.04" y2="-1336.82" gradientTransform="matrix(1 0 0 -1 0 -1330)" gradientUnits="userSpaceOnUse"><stop offset="0" stop-color="#0078d4"/><stop offset=".16" stop-color="#1380da"/><stop offset=".53" stop-color="#3c91e5"/><stop offset=".82" stop-color="#559cec"/><stop offset="1" stop-color="#5ea0ef"/></linearGradient></defs><path d="M14.32 12.76a.59.59 0 01-.57.57H5.07a.57.57 0 01-.57-.57V1.18a.55.55 0 01.55-.57h8.7a.57.57 0 01.57.57z" fill="#777"/><path d="M12.32 14.76a.59.59 0 01-.57.57H3.07a.57.57 0 01-.57-.57V3.18a.55.55 0 01.55-.57h8.7a.57.57 0 01.57.57z" fill="#999"/><path d="M10.32 16.76a.59.59 0 01-.57.57H1.07a.58.58 0 01-.57-.57V5.18a.55.55 0 01.55-.57h8.7a.57.57 0 01.57.57z" fill="url(#a)"/><path d="M1.94 7.31A1.06 1.06 0 013 6.24h4.9a1.07 1.07 0 011.1 1 1.08 1.08 0 01-1.08 1.13H3a1.08 1.08 0 01-1.06-1.06z" fill="#003067"/><circle cx="3.06" cy="7.31" r=".72" fill="#50e6ff"/><path d="M17.5 14.08a3.35 3.35 0 00-2.91-3.22 4.21 4.21 0 00-4.35-4A4.31 4.31 0 006.1 9.64a4 4 0 00-3.52 3.85 4.06 4.06 0 004.2 3.9h7.39a3.38 3.38 0 003.33-3.31z" fill="url(#b)"/><path d="M13.61 14.45v-3.36h-.93v4.12h2.45v-.76zm-7.1-1.65a2.67 2.67 0 01-.51-.31.47.47 0 01-.12-.32.32.32 0 01.15-.3.63.63 0 01.42-.12 1.68 1.68 0 011 .29v-.86a2.82 2.82 0 00-1-.15 1.7 1.7 0 00-1.09.33 1.08 1.08 0 00-.41.89 1.35 1.35 0 00.94 1.2 2.51 2.51 0 01.61.36.42.42 0 01.15.32.33.33 0 01-.15.3.78.78 0 01-.45.12A1.61 1.61 0 015 14.13v.92a2.28 2.28 0 001 .23A1.93 1.93 0 007.15 15a1.06 1.06 0 00.43-.91 1 1 0 00-.25-.7 2.26 2.26 0 00-.82-.59zm5.16 1.58a2.33 2.33 0 00.33-1.26 2.27 2.27 0 00-.25-1.12 1.7 1.7 0 00-.69-.74A1.88 1.88 0 0010 11a2.1 2.1 0 00-1 .29 1.87 1.87 0 00-.73.77A2.49 2.49 0 008 13.2a2.28 2.28 0 00.24 1.05 1.86 1.86 0 00.68.74 2.07 2.07 0 001 .29l.85 1H12l-1.19-1.1a1.82 1.82 0 00.86-.8zm-.93-.25a.93.93 0 01-.76.35.92.92 0 01-.75-.36 1.5 1.5 0 01-.28-1 1.43 1.43 0 01.29-1 .93.93 0 01.77-.37.87.87 0 01.74.37 1.48 1.48 0 01.28 1 1.47 1.47 0 01-.29 1.01z" fill="#f2f2f2"/></svg>