<svg xmlns="http://www.w3.org/2000/svg" viewBox="0 0 18 18"><defs><linearGradient id="a" x1="8.693" y1="12.726" x2="8.693" y2=".705" gradientUnits="userSpaceOnUse"><stop offset="0" stop-color="#0078d4"/><stop offset=".105" stop-color="#1480da"/><stop offset=".306" stop-color="#348ee3"/><stop offset=".5" stop-color="#4b98ea"/><stop offset=".682" stop-color="#599eee"/><stop offset=".84" stop-color="#5ea0ef"/></linearGradient></defs><path fill="none" d="M0 0h18v18H0z"/><path fill="none" d="M0 0h18v18H0z"/><path d="M17.173 8.961A3.811 3.811 0 0013.866 5.3 4.8 4.8 0 008.919.705a4.926 4.926 0 00-4.708 3.211 4.547 4.547 0 00-4 4.375 4.615 4.615 0 004.776 4.435c.141 0 .281-.007.42-.018h7.734a.769.769 0 00.2-.031 3.855 3.855 0 003.832-3.716z" fill="url(#a)"/><circle cx="9.101" cy="6.379" r="1.318" fill="#fff"/><ellipse cx="12.693" cy="7.698" rx="1.057" ry="1.062" fill="#fff"/><circle cx="10.419" cy="3.615" r=".738" fill="#fff"/><path d="M17.442 17.3h-8.7c-.277 0-.44-.443-.283-.671l3-4.369a.351.351 0 00.061-.2V9.172A.173.173 0 0011.346 9h-.161a.344.344 0 01-.344-.344V8.5a.344.344 0 01.344-.344H15a.344.344 0 01.344.344v.155A.344.344 0 0115 9h-.161a.172.172 0 00-.172.172v2.895a.339.339 0 00.061.2l3 4.362c.155.223-.009.671-.286.671z" fill="#50e6ff"/><path d="M9.746 16.128l2.277-3.32a.827.827 0 00.146-.471V11a.265.265 0 01.265-.265h1.292a.265.265 0 01.265.265v1.428a.553.553 0 00.1.317l2.325 3.383a.2.2 0 01-.163.311H9.909a.2.2 0 01-.163-.311z" fill="#fff"/><path d="M11.949 15.034l.463 1.072a.066.066 0 00.124-.005l.484-1.435a.066.066 0 01.122-.01l.394.751a.067.067 0 00.116 0l.526-.889a.066.066 0 01.058-.033h1.057l-.215-.311a.066.066 0 00-.055-.029h-.981a.067.067 0 00-.058.032l-.314.532a.066.066 0 01-.116 0l-.481-.915a.066.066 0 00-.122.01l-.451 1.348a.066.066 0 01-.124.005l-.387-.9a.066.066 0 00-.119 0l-.549 1a.067.067 0 01-.059.034h-.9a.068.068 0 00-.055.029l-.214.311h1.367a.067.067 0 00.059-.034l.311-.565a.066.066 0 01.119.002z" fill="#86d633"/></svg>