<svg xmlns="http://www.w3.org/2000/svg" viewBox="0 0 18 18"><defs><linearGradient id="a" x1="9" y1="19.85" x2="9" y2="-1.02" gradientUnits="userSpaceOnUse"><stop offset="0" stop-color="#5e9624"/><stop offset=".02" stop-color="#5f9724"/><stop offset="1" stop-color="#76bc2d"/></linearGradient></defs><path d="M.18 8.57L8.57.18a.6.6 0 01.86 0l8.39 8.39a.6.6 0 010 .86l-8.4 8.4a.6.6 0 01-.84 0l-8.4-8.4a.6.6 0 010-.86z" fill="url(#a)"/><path d="M11.2 4L9.08 1.89a.12.12 0 00-.16 0L6.8 4a.1.1 0 00.08.18h1.24a.11.11 0 01.11.11v2a.11.11 0 00.11.11h1.32a.11.11 0 00.11-.11v-2a.11.11 0 01.11-.11h1.24A.1.1 0 0011.2 4zM4 6.61L1.9 8.74a.11.11 0 000 .15L4 11a.11.11 0 00.19-.08V9.69a.11.11 0 01.11-.11h2a.1.1 0 00.1-.11V8.15A.1.1 0 006.33 8h-2a.1.1 0 01-.11-.1V6.69A.11.11 0 004 6.61zM14.08 11l2.13-2.12a.11.11 0 000-.15l-2.13-2.12a.11.11 0 00-.18.08v1.25a.1.1 0 01-.11.1h-2a.1.1 0 00-.1.11v1.32a.1.1 0 00.1.11h2a.11.11 0 01.11.11v1.24a.11.11 0 00.18.07z" fill="#b4ec36"/><path d="M11.79 9a2.79 2.79 0 10-3.54 2.67v.95a1.71 1.71 0 101.57 0v-1A2.77 2.77 0 0011.79 9z" fill="#fff"/><circle cx="9.01" cy="8.99" r="1.62" fill="#5ea0ef"/></svg>