<svg xmlns="http://www.w3.org/2000/svg" viewBox="0 0 18 18"><defs><linearGradient id="a" x1="8.153" y1="17.5" x2="8.153" y2="2.093" gradientUnits="userSpaceOnUse"><stop offset="0" stop-color="#ef7100"/><stop offset=".9" stop-color="#f78d1e"/></linearGradient></defs><path d="M1.931 2.109L3.142.7a.591.591 0 01.444-.2H15.2a.813.813 0 01.888.831v14.5a.59.59 0 01-.192.435l-1.308 1.191H2.716l-.8-.337z" fill="#d15900"/><path d="M2.905 2.1l.742-.846a.522.522 0 01.394-.179h10.845a.522.522 0 01.522.522v13.786a.521.521 0 01-.171.386l-1.158 1.055z" fill="#fff"/><path d="M14.008 2.093H1.969a.056.056 0 00-.056.056v14.966a.385.385 0 00.387.385h11.71a.385.385 0 00.385-.385V2.478a.386.386 0 00-.387-.385z" fill="url(#a)"/><path d="M10.5 9.859a2.263 2.263 0 01-.638 1.587.384.384 0 01-.574.064.394.394 0 01.006-.593 1.565 1.565 0 000-2.174.39.39 0 11.572-.522 2.311 2.311 0 01.634 1.638zM5.807 9.858a2.382 2.382 0 01.636-1.632.392.392 0 11.569.528 1.565 1.565 0 000 2.158.4.4 0 010 .607.381.381 0 01-.545-.052 2.367 2.367 0 01-.66-1.609zM7.5 9.822a.657.657 0 01.659-.656.665.665 0 010 1.329.65.65 0 01-.659-.673z" fill="#fff"/><path d="M12.5 9.8a3.369 3.369 0 01-.952 2.367.573.573 0 01-.855.1.588.588 0 01.009-.886 2.333 2.333 0 000-3.242.582.582 0 11.854-.778A3.437 3.437 0 0112.5 9.8zM3.8 9.726a3.369 3.369 0 00.952 2.367.573.573 0 00.855.1.588.588 0 00-.007-.893 2.334 2.334 0 010-3.242.582.582 0 10-.853-.778A3.442 3.442 0 003.8 9.726z" fill="#fff"/></svg>