<svg xmlns="http://www.w3.org/2000/svg" viewBox="0 0 18 18"><defs><linearGradient id="a" x1="13.31" y1=".23" x2="6.51" y2="15" gradientUnits="userSpaceOnUse"><stop offset="0" stop-color="#552f99"/><stop offset=".07" stop-color="#643daa"/><stop offset=".2" stop-color="#7c53c5"/><stop offset=".35" stop-color="#8f64da"/><stop offset=".51" stop-color="#9c71e9"/><stop offset=".7" stop-color="#a478f1"/><stop offset="1" stop-color="#a67af4"/></linearGradient></defs><path d="M9.42 11.66l2.4-1.33a.07.07 0 000-.06V7.6a.07.07 0 000-.06h-.07L9.38 8.87a.05.05 0 000 .05v2.67a.07.07 0 000 .06m0 3.34l2.4-1.33a.07.07 0 000-.06v-2.66a.07.07 0 000-.06.09.09 0 00-.07 0l-2.4 1.33v2.67a.07.07 0 000 .06m3.1-5L15 8.65a.06.06 0 000-.06V5.93a.06.06 0 000-.06h-.08L12.49 7.2v2.72a.06.06 0 000 .06m0 3.34L15 12a.06.06 0 000-.06V9.27a.06.06 0 000-.06.11.11 0 00-.08 0l-2.39 1.33a.05.05 0 000 .05v2.67a.06.06 0 000 .06" fill="#198ab3"/><path d="M8.57 11.66l-2.43-1.34a.05.05 0 010-.06V7.6a.06.06 0 010-.06h.07l2.4 1.33a.06.06 0 010 .06v2.66a.07.07 0 010 .06M8.57 15l-2.43-1.34a.05.05 0 010-.06v-2.66a.05.05 0 010-.06.09.09 0 01.07 0l2.4 1.33a.06.06 0 010 .06v2.66a.07.07 0 010 .06M5.46 10L3 8.65a.07.07 0 010-.06V5.93a.08.08 0 010-.06h.08L5.5 7.2a.07.07 0 010 .06v2.66a.08.08 0 010 .06M5.46 13.33L3 12a.07.07 0 010-.06V9.27a.07.07 0 010-.06.11.11 0 01.08 0l2.42 1.33a.07.07 0 010 .06v2.66a.08.08 0 010 .06" fill="#32bedd"/><path d="M6.44 6.81L9 5.44a.08.08 0 01.08 0l2.45 1.34a.06.06 0 010 .06.07.07 0 010 .06L9 8.24h-.07L6.47 6.91a.1.1 0 010-.07M3.21 5.05l2.48-1.38h.07L8.19 5a.06.06 0 010 .06.07.07 0 010 .06L5.74 6.48h-.08L3.23 5.14a.06.06 0 010-.06M9.75 5.08l2.48-1.38a.09.09 0 01.07 0L14.73 5a.08.08 0 010 .06.07.07 0 010 .06l-2.45 1.39h-.08L9.77 5.17a.06.06 0 010-.06M6.45 3.34L9 2l2.5 1.3a.07.07 0 010 .06.05.05 0 010 .06L9 4.75h-.06L6.48 3.43a.07.07 0 010-.05" fill="#50e6ff"/><path d="M17.57 4.48c-.66-1.09-2.2-1.52-4.35-1.2h-.26l1.91 1a2.07 2.07 0 011.73.75c.4.67.06 1.81-.93 3.14a17.45 17.45 0 01-5 4.23 17.33 17.33 0 01-6.06 2.4c-1.64.25-2.81 0-3.21-.66s-.09-1.69.77-2.92V9.39c-.27.31-.5.61-.75.94-1.29 1.73-1.65 3.29-1 4.39a3.33 3.33 0 003 1.3 8.92 8.92 0 001.31-.1 18.71 18.71 0 006.5-2.52 18.6 18.6 0 005.3-4.53c1.34-1.73 1.7-3.29 1.04-4.39z" fill="url(#a)"/></svg>