<svg xmlns="http://www.w3.org/2000/svg" viewBox="0 0 18 18"><defs><linearGradient id="a" x1="9" y1="2.95" x2="9" y2="6.34" gradientUnits="userSpaceOnUse"><stop offset="0" stop-color="#c69aeb"/><stop offset="1" stop-color="#6f4bb2"/></linearGradient><linearGradient id="b" x1="8.99" y1="6.76" x2="8.99" y2="9.22" gradientUnits="userSpaceOnUse"><stop offset="0" stop-color="#54aef0"/><stop offset="1" stop-color="#1988d9"/></linearGradient></defs><path fill="#949494" d="M13.69 11.22l-1.5-3.3L9 4.2 5.79 7.91 4.28 11.2l.53.25 1.23-2.68 1.21 2.68.54-.24-1.4-3.09L9 5.1l2.6 3.03-1.42 3.08.53.25 1.23-2.67 1.21 2.68.54-.25z"/><circle cx="9" cy="4.65" r="1.69" fill="url(#a)"/><path d="M6 6.76A1.23 1.23 0 114.82 8 1.23 1.23 0 016 6.76zM10.72 8a1.22 1.22 0 001.22 1.22A1.23 1.23 0 1010.72 8z" fill="url(#b)"/><g fill="#37c2b1"><circle cx="4.54" cy="11.32" r=".97"/><circle cx="7.52" cy="11.33" r=".97"/><g><circle cx="10.44" cy="11.34" r=".97"/><circle cx="13.42" cy="11.35" r=".97"/></g></g><path d="M.5 15.22a.16.16 0 00.08.14l1.15.64 2 1.14a.18.18 0 00.23-.06L4.57 16a.15.15 0 00-.06-.22l-2.29-1.37a.16.16 0 01-.08-.14V3.73a.16.16 0 01.08-.14l2.29-1.33A.15.15 0 004.57 2L3.92.89a.18.18 0 00-.23-.06L1.77 1.94l-1.19.7a.16.16 0 00-.08.14v12.44z" fill="#949494"/><path d="M4.57 2L3.92.89a.18.18 0 00-.17-.08h-.08L1.75 1.94l-1.19.7a.1.1 0 00-.06 0 .24.24 0 000 .08l1.64 1a.16.16 0 01.08-.14l2.29-1.32A.15.15 0 004.57 2zM4.57 16l-.65 1.15a.18.18 0 01-.17.08.12.12 0 01-.08 0l-1.92-1.17-1.19-.7a.1.1 0 01-.06 0 .24.24 0 010-.08l1.64-1a.16.16 0 00.08.14l2.29 1.33a.16.16 0 01.06.25z" fill="#a3a3a3"/><path d="M17.5 2.78a.16.16 0 00-.08-.14L16.27 2l-2-1.14a.18.18 0 00-.23.06L13.43 2a.15.15 0 00.06.22l2.29 1.33a.16.16 0 01.08.14v10.58a.16.16 0 01-.08.14l-2.29 1.33a.15.15 0 00-.06.22l.65 1.15a.18.18 0 00.23.06l1.92-1.11 1.19-.7a.16.16 0 00.08-.14V2.78z" fill="#949494"/><path d="M13.43 16l.65 1.15a.18.18 0 00.17.08h.08l1.92-1.11 1.19-.7a.1.1 0 00.06 0 .24.24 0 000-.08l-1.64-1a.16.16 0 01-.08.14l-2.29 1.33a.15.15 0 00-.06.19zM13.43 2l.65-1.11a.18.18 0 01.17-.08.12.12 0 01.08 0l1.92 1.11 1.19.7a.1.1 0 01.06 0 .24.24 0 010 .08l-1.64 1a.16.16 0 00-.08-.14l-2.29-1.3a.16.16 0 01-.06-.26z" fill="#a3a3a3"/></svg>