<svg xmlns="http://www.w3.org/2000/svg" viewBox="0 0 18 18"><defs><linearGradient id="a" x1="8.45" y1="11.47" x2="8.45" y2="6.24" gradientUnits="userSpaceOnUse"><stop offset="0" stop-color="#198ab3"/><stop offset=".16" stop-color="#1f9ac2"/><stop offset=".5" stop-color="#29bade"/><stop offset=".8" stop-color="#30cdef"/><stop offset="1" stop-color="#32d4f5"/></linearGradient></defs><ellipse cx="8.45" cy="8.85" rx="2.6" ry="2.61" fill="url(#a)"/><ellipse cx="15.73" cy="4.77" rx="1.27" ry="1.28" fill="#32bedd"/><ellipse cx="15.73" cy="8.95" rx="1.27" ry="1.28" fill="#32bedd"/><ellipse cx="15.73" cy="13.12" rx="1.27" ry="1.28" fill="#32bedd"/><ellipse cx="12.83" cy="6.91" rx="1.27" ry="1.28" fill="#50e6ff"/><ellipse cx="12.83" cy="11.09" rx="1.27" ry="1.28" fill="#50e6ff"/><path d="M2.41 5.58a.24.24 0 01.09-.08l5.82-3.39c.08 0 5 2.78 5 2.78a.24.24 0 00.36-.21V3.59a.24.24 0 00-.12-.21S8.4.46 8.33.5L1.11 4.64 1 4.72zM13.3 13.14l-4.74 2.73a.35.35 0 01-.11 0v1.6a.2.2 0 00.11 0l5-2.86a.24.24 0 00.12-.2v-1.06a.24.24 0 00-.38-.21z" fill="#949494"/><path d="M8.45 15.9a.31.31 0 01-.13 0L2.5 12.47a.22.22 0 01-.12-.2V5.7a.27.27 0 010-.12L1 4.72a.28.28 0 000 .13v8.27a.24.24 0 00.11.21l7.22 4.14a.24.24 0 00.12 0z" fill="#b3b3b3"/></svg>