<svg xmlns="http://www.w3.org/2000/svg" viewBox="0 0 50 50"><defs><linearGradient id="a" x1="21.523" y1="25" x2="21.523" y2="13" gradientTransform="matrix(1 0 0 -1 0 50)" gradientUnits="userSpaceOnUse"><stop offset=".23" stop-color="#5ea0ef"/><stop offset=".32" stop-color="#5b9fee"/><stop offset=".48" stop-color="#509aeb"/><stop offset=".57" stop-color="#3f92e6"/><stop offset=".75" stop-color="#2688df"/><stop offset=".93" stop-color="#127fd9"/></linearGradient><linearGradient id="b" x1="27.477" y1="20" x2="27.477" y2="8" gradientTransform="matrix(1 0 0 -1 0 50)" gradientUnits="userSpaceOnUse"><stop offset=".02" stop-color="#5ea0ef"/><stop offset=".14" stop-color="#5b9fee"/><stop offset=".23" stop-color="#5b9fee"/><stop offset=".34" stop-color="#509aeb"/><stop offset=".44" stop-color="#3f92e6"/><stop offset=".63" stop-color="#2688df"/><stop offset=".93" stop-color="#127fd9"/></linearGradient></defs><path d="M23 7.1h3V26h-3z" fill="#7a7a7a"/><path d="M28.9 6.5a4.4 4.4 0 11-4.4-4.4 4.4 4.4 0 014.4 4.4z" fill="#1490df"/><path d="M23.9 25h-4.8a6 6 0 00-.93 11.92 6.427 6.427 0 01.06-2.23 3.79 3.79 0 01.87-7.49h4.8a3.8 3.8 0 110 7.6h-1.32a2.865 2.865 0 00-.28 1.2 2.783 2.783 0 00.19 1h1.41a6 6 0 000-12z" fill="url(#a)"/><path d="M30.83 30.08a6.91 6.91 0 01.07.92 6.266 6.266 0 01-.13 1.31 3.79 3.79 0 01-.87 7.49h-4.8a3.8 3.8 0 010-7.6h1.32a2.816 2.816 0 00.28-1.2 2.783 2.783 0 00-.19-1H25.1a6 6 0 000 12h4.8a6 6 0 00.93-11.92z" fill="url(#b)"/><path d="M15.86 44.52l-1.1 1.11a.751.751 0 01-1.06 0L1.39 33.35a1.51 1.51 0 010-2.13l1.11-1.1 13.36 13.34a.739.739 0 01.014 1.046z" fill="#50e6ff"/><path d="M14.53 19.12l1.23 1.23a.751.751 0 010 1.06L2.62 34.59l-1.23-1.22a1.51 1.51 0 010-2.13l12.08-12.12a.751.751 0 011.06 0z" fill="#1490df"/><path d="M34.13 45.39a.739.739 0 01-.014-1.046l.014-.014L47.5 31l1.11 1.11a1.51 1.51 0 010 2.13L36.29 46.5a.739.739 0 01-1.046.014l-.014-.014z" fill="#50e6ff"/><path d="M36.52 20l12.09 12.12a1.5 1.5 0 010 2.12l-1.23 1.23-13.15-13.18a.771.771 0 010-1.07L35.46 20a.751.751 0 011.06 0z" fill="#1490df"/></svg>