<svg xmlns="http://www.w3.org/2000/svg" viewBox="0 0 18 18"><defs><linearGradient id="a" x1="7.699" y1="956.076" x2="7.699" y2="960.567" gradientTransform="translate(0 -950)" gradientUnits="userSpaceOnUse"><stop offset=".23" stop-color="#5ea0ef"/><stop offset=".93" stop-color="#127fd9"/></linearGradient><linearGradient id="b" x1="9.927" y1="957.947" x2="9.927" y2="962.438" gradientTransform="translate(0 -950)" gradientUnits="userSpaceOnUse"><stop offset=".02" stop-color="#5ea0ef"/><stop offset=".93" stop-color="#127fd9"/></linearGradient></defs><path d="M8.588 6.076h-1.8a2.246 2.246 0 00-.348 4.461 2.409 2.409 0 01.026-.837 1.418 1.418 0 01.326-2.8h1.8a1.422 1.422 0 010 2.844h-.498a1.07 1.07 0 00-.1.449 1.018 1.018 0 00.071.374h.527a2.246 2.246 0 100-4.491z" fill="url(#a)"/><path d="M11.182 7.977a2.644 2.644 0 01.026.345 2.308 2.308 0 01-.049.49 1.418 1.418 0 01-.325 2.8h-1.8a1.422 1.422 0 010-2.844h.494a1.045 1.045 0 00.1-.449 1.028 1.028 0 00-.071-.375h-.52a2.246 2.246 0 000 4.491h1.8a2.246 2.246 0 00.348-4.461z" fill="url(#b)"/><path d="M5.58 13.381l-.412.416a.282.282 0 01-.4 0L.164 9.2a.566.566 0 010-.8l.416-.408 5 4.993a.276.276 0 010 .391z" fill="#50e6ff"/><path d="M5.082 3.876l.46.46a.282.282 0 010 .4L.625 9.665l-.461-.456a.566.566 0 010-.8l4.521-4.533a.282.282 0 01.397 0z" fill="#1490df"/><path d="M12.417 13.707a.276.276 0 01-.006-.391h.006l5-4.988.416.415a.566.566 0 010 .8l-4.611 4.588a.276.276 0 01-.391.006l-.006-.005z" fill="#50e6ff"/><path d="M13.311 4.205l4.525 4.536a.563.563 0 010 .793l-.461.46-4.921-4.932a.287.287 0 010-.4l.46-.457a.282.282 0 01.397 0z" fill="#1490df"/></svg>