<svg xmlns="http://www.w3.org/2000/svg" viewBox="0 0 18 18"><path d="M13.022 16.764c-2.09-.28-2.055-1.624-2.045-3.8H7.061c.01 2.179.045 3.523-2.046 3.8a1.066 1.066 0 00-.984.958h9.981a1.072 1.072 0 00-.99-.958z" fill="#1f56a3"/><rect y=".278" width="18" height="12.747" rx=".61" fill="#1490df"/><rect x="1.037" y="1.265" width="15.901" height="10.576" rx=".305" fill="#fff"/><path d="M12.079 4.654a.153.153 0 00-.13.074l-.93 1.572a.15.15 0 01-.262-.006L9.333 3.581a.151.151 0 00-.276.022L7.719 7.575a.151.151 0 01-.281.011L6.281 4.905a.15.15 0 00-.27-.013l-1.593 2.9a.15.15 0 01-.132.078H1.037v.958h3.815a.15.15 0 00.132-.078l.923-1.678a.151.151 0 01.27.013l1.371 3.178a.15.15 0 00.28-.011L9.25 6.031a.15.15 0 01.275-.022l1.182 2.25a.151.151 0 00.263.007l1.53-2.58a.149.149 0 01.129-.074h4.314v-.958z" fill="#76bc2d"/></svg>