<svg xmlns="http://www.w3.org/2000/svg" viewBox="0 0 18 18"><defs><linearGradient id="a" x1="9" y1="14.633" x2="9" y2="1.875" gradientUnits="userSpaceOnUse"><stop offset="0" stop-color="#0078d4"/><stop offset="1" stop-color="#5ea0ef"/></linearGradient><linearGradient id="b" x1="11.443" y1="9.184" x2="11.443" y2="15.325" gradientUnits="userSpaceOnUse"><stop offset="0" stop-color="#fff"/><stop offset="1" stop-color="#f2f2f2"/></linearGradient></defs><path d="M18 10.637a4.044 4.044 0 00-3.51-3.887 5.1 5.1 0 00-5.25-4.875 5.229 5.229 0 00-5 3.408A4.826 4.826 0 000 9.927a4.9 4.9 0 005.068 4.706c.151 0 .3-.007.447-.019h8.207a.819.819 0 00.217-.033A4.092 4.092 0 0018 10.637z" fill="url(#a)"/><path d="M11.442 8.286c3.862 0 6.221 2.874 6.41 6.8a.994.994 0 01-.992 1.043H6.026a1 1 0 01-.992-1.044c.193-3.925 2.553-6.799 6.408-6.799z" fill="#50e6ff"/><path d="M6.026 15.463a.324.324 0 01-.239-.1.329.329 0 01-.092-.246c.185-3.752 2.768-6.166 5.747-6.166s5.569 2.414 5.749 6.166a.329.329 0 01-.092.246.324.324 0 01-.239.1z" fill="url(#b)"/><path d="M14.55 11.02a4.648 4.648 0 00-2.777-1.185V12a2.6 2.6 0 011.291.551z" fill="#9cebff"/><path d="M8.335 11.02l1.486 1.528A2.6 2.6 0 0111.112 12V9.835a4.648 4.648 0 00-2.777 1.185z" fill="#50e6ff"/><path d="M13.532 13.029a2.753 2.753 0 01.535 1.327h2.1a4.926 4.926 0 00-1.149-2.856z" fill="#9cebff"/><path d="M9.354 13.029L7.867 11.5a4.933 4.933 0 00-1.153 2.855h2.1a2.745 2.745 0 01.54-1.326zM15.31 12.555a.331.331 0 00-.428-.188l-3.1 1.236.241.616 3.1-1.235a.332.332 0 00.187-.429z" fill="#32bedd"/><circle cx="11.442" cy="14.049" r=".904" fill="#767676"/></svg>