<svg xmlns="http://www.w3.org/2000/svg" viewBox="0 0 18 18"><defs><linearGradient id="a" x1="5.759" y1=".5" x2="5.759" y2="16.523" gradientUnits="userSpaceOnUse"><stop offset="0" stop-color="#b3b2b3"/><stop offset=".375" stop-color="#afaeaf"/><stop offset=".763" stop-color="#a2a2a2"/><stop offset="1" stop-color="#979797"/></linearGradient><linearGradient id="b" x1="11.676" y1="17.5" x2="11.676" y2="8.901" gradientUnits="userSpaceOnUse"><stop offset="0" stop-color="#0078d4"/><stop offset=".156" stop-color="#1380da"/><stop offset=".528" stop-color="#3c91e5"/><stop offset=".822" stop-color="#559cec"/><stop offset="1" stop-color="#5ea0ef"/></linearGradient></defs><path d="M10.96 15.98a.574.574 0 01-.6.543h-9.2a.574.574 0 01-.6-.543V1.043A.574.574 0 011.158.5h9.2a.574.574 0 01.6.543z" fill="url(#a)"/><path d="M2.086 7.35A1.193 1.193 0 013.217 6.1h5.177a1.193 1.193 0 011.131 1.25A1.193 1.193 0 018.394 8.6H3.217a1.193 1.193 0 01-1.131-1.25zM2.086 3.649A1.193 1.193 0 013.217 2.4h5.177a1.193 1.193 0 011.131 1.249 1.193 1.193 0 01-1.131 1.246H3.217a1.193 1.193 0 01-1.131-1.246z" fill="#003067"/><circle cx="3.542" cy="3.649" r=".836" fill="#50e6ff"/><circle cx="3.542" cy="7.35" r=".836" fill="#50e6ff"/><path d="M14.849 10.484L11.676 8.9l-3.288 1.584-1.2 2.35v4.381a.286.286 0 00.286.285h8.405a.286.286 0 00.286-.285v-4.381z" fill="url(#b)"/><path d="M6.481 14.1a.438.438 0 01-.4-.62l1.41-3.08a.439.439 0 01.191-.2l3.854-2.073a.438.438 0 01.42 0l3.721 2.073a.434.434 0 01.178.187l1.545 3.078a.437.437 0 11-.782.392L15.133 10.9l-3.394-1.89-3.513 1.89-1.347 2.943a.438.438 0 01-.398.257z" fill="#50e6ff"/><rect x="10.742" y="11.41" width="1.787" height="1.871" rx=".285" fill="#005ba1"/><g fill="#005ba1"><path d="M11.635 15.94l1.728-1.157a.283.283 0 00-.16-.049h-3.136a.285.285 0 00-.16.049zM13.488 17.18v-2.127l-1.589 1.064 1.589 1.063zM11.371 16.117l-1.589-1.064v2.127l1.589-1.063zM13.475 17.5h.013v-.021l-.013.021zM9.782 17.479v.021h.014l-.014-.021zM9.833 17.5h3.604l-1.802-1.206L9.833 17.5z"/></g></svg>