<svg xmlns="http://www.w3.org/2000/svg" viewBox="0 0 18 18"><defs><linearGradient id="a" x1="9" y1="172.704" x2="9" y2="160.613" gradientTransform="translate(0 -160)" gradientUnits="userSpaceOnUse"><stop offset="0" stop-color="#198ab3"/><stop offset=".11" stop-color="#22a5cb"/><stop offset=".23" stop-color="#29bade"/><stop offset=".37" stop-color="#2ec9eb"/><stop offset=".53" stop-color="#31d1f3"/><stop offset=".78" stop-color="#32d4f5"/></linearGradient></defs><path d="M17.5 8.9a3.854 3.854 0 00-3.3-3.7 4.871 4.871 0 00-5-4.6 5.011 5.011 0 00-4.7 3.2 4.693 4.693 0 00-4 4.4 4.612 4.612 0 004.8 4.5h8.4a3.8 3.8 0 003.8-3.8z" fill="url(#a)"/><circle cx="9" cy="12.9" r="4.4" fill="#f2f2f2"/><path d="M12.7 10.1a4.6 4.6 0 00-6.4-.9 4.561 4.561 0 105.6 7.2 4.557 4.557 0 00.8-6.3zm-7.6 2.5a4.707 4.707 0 01.4-1.6h1.1a7.772 7.772 0 00-.2 1.6zM7.2 11h1.5v1.6H7a7.772 7.772 0 01.2-1.6zm2.1 0h1.5a7.772 7.772 0 01.2 1.6H9.3zm-.5 2.1v1.6H7.2l-.3-1.5zm.5 0h1.8a9.971 9.971 0 01-.2 1.6H9.3zm2.4 0H13a4.707 4.707 0 01-.4 1.6h-1.1a7.772 7.772 0 00.2-1.6zm0-.5a9.971 9.971 0 00-.2-1.6h1.1a4.193 4.193 0 01.4 1.6zm.5-2.2h-.9a4.5 4.5 0 00-.6-1.2 4.428 4.428 0 011.5 1.2zm-1.5 0H9.3V9a2.171 2.171 0 011.4 1.4zM8.8 9v1.5H7.4A2.118 2.118 0 018.8 9zm-2.2.7a5.582 5.582 0 01.8-.5 3.1 3.1 0 00-.6 1.3h-.9a2.7 2.7 0 01.7-.8zm-1.5 3.5h1.3a9.971 9.971 0 00.2 1.6H5.5a5.349 5.349 0 01-.4-1.6zm.8 2.1h.9l.6 1.2a3.491 3.491 0 01-1.5-1.2zm1.5 0h1.3v1.5a2.433 2.433 0 01-1.3-1.5zm1.9 1.5v-1.5h1.3a1.968 1.968 0 01-1.3 1.5zm2.2-.8a2.622 2.622 0 01-.9.5 3.379 3.379 0 00.6-1.2h.9a1.344 1.344 0 01-.6.7z" fill="#0078d4"/><path d="M5.1 11.4a4.025 4.025 0 01-2.2-2.9 3.646 3.646 0 011.5-2.9l.6-.5.5.6-.6.5a2.509 2.509 0 00-1.2 2.2 3.031 3.031 0 001.8 2.3z" fill="#e6e6e6"/><circle cx="5.3" cy="5.4" r="1.1" fill="#f2f2f2"/><path d="M12.7 11.4l-.4-.7a3.259 3.259 0 001.8-2.3 2.748 2.748 0 00-1.2-2.2l-.6-.4.5-.6.6.4a3.071 3.071 0 011.5 2.9 4.025 4.025 0 01-2.2 2.9z" fill="#e6e6e6"/><circle cx="12.6" cy="5.4" r="1.1" fill="#f2f2f2"/><circle cx="5.3" cy="11.1" r="1.1" fill="#ce74b6"/><circle cx="12.6" cy="11.1" r="1.1" fill="#ce74b6"/></svg>