<?xml version="1.0" encoding="UTF-8" standalone="no"?>
<!-- Created with Inkscape (http://www.inkscape.org/) -->

<svg
   width="29.10561mm"
   height="29.10561mm"
   viewBox="0 0 29.10561 29.10561"
   version="1.1"
   id="svg5"
   xml:space="preserve"
   inkscape:version="1.2.2 (b0a8486, 2022-12-01)"
   sodipodi:docname="gram_logo.svg"
   xmlns:inkscape="http://www.inkscape.org/namespaces/inkscape"
   xmlns:sodipodi="http://sodipodi.sourceforge.net/DTD/sodipodi-0.dtd"
   xmlns="http://www.w3.org/2000/svg"
   xmlns:svg="http://www.w3.org/2000/svg"><sodipodi:namedview
     id="namedview7"
     pagecolor="#ffffff"
     bordercolor="#666666"
     borderopacity="1.0"
     inkscape:showpageshadow="2"
     inkscape:pageopacity="0.0"
     inkscape:pagecheckerboard="0"
     inkscape:deskcolor="#d1d1d1"
     inkscape:document-units="mm"
     showgrid="false"
     inkscape:zoom="3.3638608"
     inkscape:cx="45.483451"
     inkscape:cy="67.333345"
     inkscape:window-width="1920"
     inkscape:window-height="996"
     inkscape:window-x="0"
     inkscape:window-y="28"
     inkscape:window-maximized="1"
     inkscape:current-layer="layer1" /><defs
     id="defs2" /><g
     inkscape:label="Layer 1"
     inkscape:groupmode="layer"
     id="layer1"
     transform="translate(-824.84974,-43.33703)"><g
       id="g6905"><path
         id="rect8687"
         style="fill:#282828;stroke-width:0.79375;stroke-linecap:round;stroke-linejoin:round"
         d="m 826.22439,43.33703 h 26.35631 c 0.76155,0 1.37465,0.6131 1.37465,1.37465 v 26.35631 c 0,0.76155 -0.6131,1.37465 -1.37465,1.37465 h -26.35631 c -0.76155,0 -1.37465,-0.6131 -1.37465,-1.37465 V 44.71168 c 0,-0.76155 0.6131,-1.37465 1.37465,-1.37465 z" /><g
         id="g11607"
         style="stroke:#ffffff;stroke-width:1.05833;stroke-dasharray:none;stroke-opacity:1"
         transform="translate(581.01538,-91.843105)"><path
           id="path8691"
           style="fill:none;fill-rule:evenodd;stroke:#ffffff;stroke-width:1.05833;stroke-linecap:butt;stroke-linejoin:round;stroke-dasharray:none;stroke-opacity:1"
           d="m 264.31265,149.53481 h -11.64327 m 11.64327,8.60083 h -11.6457 l 0.004,-15.60087"
           sodipodi:nodetypes="ccccc" /></g><path
         id="rect3976"
         style="fill:#ffffff;stroke-width:0.79375;stroke-linecap:round;stroke-linejoin:round"
         d="m 830.92302,47.373375 h 5.52664 c 0.30746,0 0.55498,0.247522 0.55498,0.554983 v 5.526612 c 0,0.307461 -0.24752,0.554983 -0.55498,0.554983 h -5.52664 c -0.30746,0 -0.55498,-0.247522 -0.55498,-0.554983 v -5.526612 c 0,-0.307461 0.24752,-0.554983 0.55498,-0.554983 z" /><path
         id="rect3972"
         style="fill:#ffffff;stroke-width:0.79375;stroke-linecap:round;stroke-linejoin:round"
         d="m 843.05309,54.861816 h 4.54982 c 0.30746,0 0.55498,0.247523 0.55498,0.554983 v 4.549813 c 0,0.307461 -0.24752,0.554983 -0.55498,0.554983 h -4.54982 c -0.30746,0 -0.55498,-0.247522 -0.55498,-0.554983 v -4.549813 c 0,-0.30746 0.24752,-0.554983 0.55498,-0.554983 z" /><path
         id="rect3974"
         style="fill:#ffffff;stroke-width:0.79375;stroke-linecap:round;stroke-linejoin:round"
         d="m 843.05309,63.462646 h 4.54982 c 0.30746,0 0.55498,0.247523 0.55498,0.554983 v 4.549813 c 0,0.307461 -0.24752,0.554983 -0.55498,0.554983 h -4.54982 c -0.30746,0 -0.55498,-0.247522 -0.55498,-0.554983 v -4.549813 c 0,-0.30746 0.24752,-0.554983 0.55498,-0.554983 z" /></g></g></svg>
